<svg width="18" height="19" viewBox="0 0 18 19" fill="none" xmlns="http://www.w3.org/2000/svg">
<path d="M1.615 19C1.155 19 0.771 18.846 0.463 18.538C0.154333 18.2294 0 17.845 0 17.385V4.61502C0 4.15502 0.154333 3.77102 0.463 3.46302C0.771 3.15435 1.155 3.00002 1.615 3.00002H3.385V0.77002H4.462V3.00002H11.615V0.77002H12.615V3.00002H14.385C14.845 3.00002 15.229 3.15435 15.537 3.46302C15.8457 3.77102 16 4.15502 16 4.61502V9.61502H15V8.61502H1V17.385C1 17.5384 1.064 17.6794 1.192 17.808C1.32067 17.936 1.46167 18 1.615 18H7.846V19H1.616H1.615ZM1 7.61502H15V4.61502C15 4.46169 14.936 4.32069 14.808 4.19202C14.6793 4.06402 14.5383 4.00002 14.385 4.00002H1.615C1.46167 4.00002 1.32067 4.06402 1.192 4.19202C1.064 4.32069 1 4.46169 1 4.61502V7.61502ZM10.23 19V16.79L15.563 11.483C15.6623 11.3844 15.765 11.3177 15.871 11.283C15.9777 11.2484 16.0843 11.231 16.191 11.231C16.301 11.231 16.4123 11.2524 16.525 11.295C16.6377 11.3377 16.737 11.402 16.823 11.488L17.748 12.433C17.83 12.5317 17.8927 12.634 17.936 12.74C17.9787 12.8467 18 12.9534 18 13.06C18 13.1667 17.9793 13.274 17.938 13.382C17.8973 13.49 17.834 13.5934 17.748 13.692L12.44 19H10.23ZM11.115 18.115H12.065L15.533 14.642L15.063 14.167L14.608 13.679L11.115 17.165V18.115ZM15.063 14.167L14.608 13.679L15.533 14.642L15.063 14.167Z" fill="black" fill-opacity="0.54"/>
</svg>
