<svg width="36" height="40" viewBox="0 0 36 40" fill="none" xmlns="http://www.w3.org/2000/svg">
<path d="M1.50049 20.2971C1.50049 10.2902 8.88779 2.17798 18.0005 2.17798C27.1132 2.17798 34.5005 10.2902 34.5005 20.2971C34.5005 29.6979 27.9809 37.4266 19.636 38.3283C19.6807 38.3197 19.7253 38.3105 19.7698 38.3007V25.4983H24.0595L24.7014 20.0293H19.7698V16.5375C19.7698 14.9539 20.17 13.8751 22.238 13.8751L24.8751 13.8737V8.9823C24.419 8.91543 22.8537 8.76675 21.0323 8.76675C17.2301 8.76675 14.6267 11.3153 14.6267 15.9961V20.0293H10.326V25.4983H14.6267V38.0371C7.1321 36.3271 1.50049 29.0343 1.50049 20.2971Z" fill="#99B4DF"/>
</svg>
