<svg width="36" height="40" viewBox="0 0 36 40" fill="none" xmlns="http://www.w3.org/2000/svg">
<path d="M18.2323 16.6865V22.8492C18.2323 23.4021 18.6791 23.85 19.232 23.8492C21.1428 23.8465 25.2992 23.8409 27.2779 23.8409C25.8602 28.486 23.6565 31.015 18.2323 31.015C12.7428 31.015 8.45818 26.2036 8.45818 20.2679C8.45818 14.3336 12.7428 9.52224 18.2323 9.52224C21.1344 9.52224 23.009 10.6254 24.7283 12.1625C26.1043 10.6747 25.9894 10.462 29.4907 6.8862C26.5181 3.96133 22.5678 2.17908 18.2323 2.17908C8.99212 2.17908 1.5 10.2774 1.5 20.2679C1.5 30.2584 8.99212 38.3581 18.2323 38.3581C32.0442 38.3581 35.4202 25.3554 34.3014 16.6865H18.2323Z" fill="#99B4DF"/>
<mask id="mask0_10658_814" style="mask-type:luminance" maskUnits="userSpaceOnUse" x="1" y="2" width="34" height="37">
<path d="M18.2323 16.6865V22.8492C18.2323 23.4021 18.6791 23.85 19.232 23.8492C21.1428 23.8465 25.2992 23.8409 27.2779 23.8409C25.8602 28.486 23.6565 31.015 18.2323 31.015C12.7428 31.015 8.45818 26.2036 8.45818 20.2679C8.45818 14.3336 12.7428 9.52224 18.2323 9.52224C21.1344 9.52224 23.009 10.6254 24.7283 12.1625C26.1043 10.6747 25.9894 10.462 29.4907 6.8862C26.5181 3.96133 22.5678 2.17908 18.2323 2.17908C8.99212 2.17908 1.5 10.2774 1.5 20.2679C1.5 30.2584 8.99212 38.3581 18.2323 38.3581C32.0442 38.3581 35.4202 25.3554 34.3014 16.6865H18.2323Z" fill="white"/>
</mask>
<g mask="url(#mask0_10658_814)">
</g>
</svg>
