<svg width="370" height="250" viewBox="0 0 370 250" fill="none" xmlns="http://www.w3.org/2000/svg">
<g filter="url(#filter0_d_10673_1947)">
<mask id="mask0_10673_1947" style="mask-type:alpha" maskUnits="userSpaceOnUse" x="25" y="13" width="320" height="200">
<path d="M324 13H46C34.402 13 25 22.402 25 34V192C25 203.598 34.402 213 46 213H324C335.598 213 345 203.598 345 192V34C345 22.402 335.598 13 324 13Z" fill="white"/>
</mask>
<g mask="url(#mask0_10673_1947)">
<path d="M324 13H46C34.402 13 25 22.402 25 34V192C25 203.598 34.402 213 46 213H324C335.598 213 345 203.598 345 192V34C345 22.402 335.598 13 324 13Z" fill="url(#paint0_linear_10673_1947)"/>
<path style="mix-blend-mode:soft-light" opacity="0.7" fill-rule="evenodd" clip-rule="evenodd" d="M339 -47C309.161 60.0943 270.129 131.579 221.905 167.453C173.68 203.327 102.379 218.01 8.00003 211.5V-47H339Z" fill="url(#paint1_linear_10673_1947)"/>
<g style="mix-blend-mode:overlay" opacity="0.4">
<path fill-rule="evenodd" clip-rule="evenodd" d="M419 -47C382.85 60.0943 335.564 131.579 277.141 167.453C218.718 203.327 132.338 218.01 18 211.5V-47H419Z" fill="url(#paint2_linear_10673_1947)" style="mix-blend-mode:soft-light"/>
</g>
<path style="mix-blend-mode:soft-light" opacity="0.6" fill-rule="evenodd" clip-rule="evenodd" d="M257.405 -83.3777C260.31 9.28046 244.376 77.8268 209.603 122.261C174.831 166.696 112.384 202.951 22.2626 231.027L-52.0956 32.6106L257.405 -83.3777Z" fill="url(#paint3_linear_10673_1947)"/>
</g>
<path d="M52.4886 179.096C51.9979 179.096 51.5553 178.984 51.1606 178.76C50.7659 178.525 50.4513 178.205 50.2166 177.8C49.9819 177.395 49.8646 176.941 49.8646 176.44C49.8646 175.928 49.9819 175.475 50.2166 175.08C50.4513 174.685 50.7659 174.376 51.1606 174.152C51.5553 173.928 51.9979 173.816 52.4886 173.816C52.9793 173.816 53.4219 173.928 53.8166 174.152C54.2219 174.376 54.5419 174.685 54.7766 175.08C55.0219 175.475 55.1446 175.928 55.1446 176.44C55.1446 176.941 55.0219 177.395 54.7766 177.8C54.5419 178.205 54.2219 178.525 53.8166 178.76C53.4219 178.984 52.9793 179.096 52.4886 179.096ZM64.456 179.096C63.9653 179.096 63.5227 178.984 63.128 178.76C62.7333 178.525 62.4187 178.205 62.184 177.8C61.9493 177.395 61.832 176.941 61.832 176.44C61.832 175.928 61.9493 175.475 62.184 175.08C62.4187 174.685 62.7333 174.376 63.128 174.152C63.5227 173.928 63.9653 173.816 64.456 173.816C64.9467 173.816 65.3893 173.928 65.784 174.152C66.1893 174.376 66.5093 174.685 66.744 175.08C66.9893 175.475 67.112 175.928 67.112 176.44C67.112 176.941 66.9893 177.395 66.744 177.8C66.5093 178.205 66.1893 178.525 65.784 178.76C65.3893 178.984 64.9467 179.096 64.456 179.096ZM76.4234 179.096C75.9327 179.096 75.49 178.984 75.0954 178.76C74.7007 178.525 74.386 178.205 74.1514 177.8C73.9167 177.395 73.7994 176.941 73.7994 176.44C73.7994 175.928 73.9167 175.475 74.1514 175.08C74.386 174.685 74.7007 174.376 75.0954 174.152C75.49 173.928 75.9327 173.816 76.4234 173.816C76.914 173.816 77.3567 173.928 77.7514 174.152C78.1567 174.376 78.4767 174.685 78.7114 175.08C78.9567 175.475 79.0794 175.928 79.0794 176.44C79.0794 176.941 78.9567 177.395 78.7114 177.8C78.4767 178.205 78.1567 178.525 77.7514 178.76C77.3567 178.984 76.914 179.096 76.4234 179.096ZM88.3907 179.096C87.9001 179.096 87.4574 178.984 87.0627 178.76C86.6681 178.525 86.3534 178.205 86.1187 177.8C85.8841 177.395 85.7667 176.941 85.7667 176.44C85.7667 175.928 85.8841 175.475 86.1187 175.08C86.3534 174.685 86.6681 174.376 87.0627 174.152C87.4574 173.928 87.9001 173.816 88.3907 173.816C88.8814 173.816 89.3241 173.928 89.7187 174.152C90.1241 174.376 90.4441 174.685 90.6787 175.08C90.9241 175.475 91.0467 175.928 91.0467 176.44C91.0467 176.941 90.9241 177.395 90.6787 177.8C90.4441 178.205 90.1241 178.525 89.7187 178.76C89.3241 178.984 88.8814 179.096 88.3907 179.096Z" fill="white"/>
<path d="M105.503 182.144C104.191 182.144 103.188 181.648 102.495 180.656C101.812 179.653 101.471 178.219 101.471 176.352C101.471 174.453 101.812 173.019 102.495 172.048C103.188 171.067 104.191 170.576 105.503 170.576C106.826 170.576 107.828 171.067 108.511 172.048C109.194 173.019 109.535 174.448 109.535 176.336C109.535 178.213 109.188 179.653 108.495 180.656C107.812 181.648 106.815 182.144 105.503 182.144ZM105.503 180.768C106.314 180.768 106.916 180.411 107.311 179.696C107.706 178.981 107.903 177.861 107.903 176.336C107.903 174.811 107.706 173.701 107.311 173.008C106.927 172.304 106.324 171.952 105.503 171.952C104.692 171.952 104.09 172.304 103.695 173.008C103.3 173.712 103.103 174.821 103.103 176.336C103.103 177.861 103.3 178.981 103.695 179.696C104.09 180.411 104.692 180.768 105.503 180.768ZM113.257 182V180.768L117.017 176.736C117.54 176.171 117.913 175.659 118.137 175.2C118.372 174.741 118.489 174.277 118.489 173.808C118.489 172.592 117.774 171.984 116.345 171.984C115.257 171.984 114.281 172.395 113.417 173.216L112.825 171.952C113.252 171.536 113.796 171.205 114.457 170.96C115.118 170.704 115.806 170.576 116.521 170.576C117.684 170.576 118.574 170.843 119.193 171.376C119.822 171.909 120.137 172.672 120.137 173.664C120.137 174.336 119.972 174.992 119.641 175.632C119.321 176.272 118.814 176.955 118.121 177.68L115.337 180.608H120.585V182H113.257ZM124.963 182V180.608H127.523V172.64L125.523 173.888L124.851 172.656L128.003 170.72H129.171V180.608H131.571V182H124.963ZM135.644 182V180.768L139.404 176.736C139.927 176.171 140.3 175.659 140.524 175.2C140.759 174.741 140.876 174.277 140.876 173.808C140.876 172.592 140.162 171.984 138.732 171.984C137.644 171.984 136.668 172.395 135.804 173.216L135.212 171.952C135.639 171.536 136.183 171.205 136.844 170.96C137.506 170.704 138.194 170.576 138.908 170.576C140.071 170.576 140.962 170.843 141.58 171.376C142.21 171.909 142.524 172.672 142.524 173.664C142.524 174.336 142.359 174.992 142.028 175.632C141.708 176.272 141.202 176.955 140.508 177.68L137.724 180.608H142.972V182H135.644Z" fill="white"/>
<path fill-rule="evenodd" clip-rule="evenodd" d="M101.397 38.0109L100.559 42.9905C98.0449 41.5672 92.3231 41.2304 92.3231 43.8514C92.3231 44.8929 93.6177 45.6091 95.1781 46.4724C97.5445 47.7817 100.522 49.4291 100.522 53.062C100.522 58.8665 94.4732 61 90.4646 61C86.4559 61 83.8326 59.6901 83.8326 59.6901L84.7066 54.4848C87.1115 56.4688 94.4002 57.0319 94.4002 53.8863C94.4002 52.5646 92.9656 51.785 91.302 50.8811C89.0062 49.6336 86.2742 48.1491 86.2742 44.6756C86.2742 38.3099 93.1978 37 96.1133 37C98.8102 37 101.397 38.0109 101.397 38.0109ZM115.605 60.6006H121L116.297 37.4143H111.573C109.392 37.4143 108.861 39.1422 108.861 39.1422L100.1 60.6006H106.223L107.448 57.1566H114.917L115.605 60.6006ZM109.141 52.399L112.228 43.7224L113.964 52.399H109.141ZM63.7942 53.3622L69.3952 37.4149H75.7181L66.371 60.6012H60.2497L55.1455 40.4583C51.8322 38.4128 49 37.8075 49 37.8075L49.1087 37.4149H58.3682C60.9161 37.4149 61.1551 39.5031 61.1551 39.5031L63.132 49.9294L63.1314 49.9281L63.7942 53.3622ZM74.3376 60.6006H80.2127L83.8851 37.4149H78.0095L74.3376 60.6006Z" fill="white"/>
</g>
<defs>
<filter id="filter0_d_10673_1947" x="0" y="0" width="373" height="250" filterUnits="userSpaceOnUse" color-interpolation-filters="sRGB">
<feFlood flood-opacity="0" result="BackgroundImageFix"/>
<feColorMatrix in="SourceAlpha" type="matrix" values="0 0 0 0 0 0 0 0 0 0 0 0 0 0 0 0 0 0 127 0" result="hardAlpha"/>
<feOffset dy="12"/>
<feGaussianBlur stdDeviation="12.5"/>
<feColorMatrix type="matrix" values="0 0 0 0 0.0604107 0 0 0 0 0.199302 0 0 0 0 0.419214 0 0 0 0.25 0"/>
<feBlend mode="normal" in2="BackgroundImageFix" result="effect1_dropShadow_10673_1947"/>
<feBlend mode="normal" in="SourceGraphic" in2="effect1_dropShadow_10673_1947" result="shape"/>
</filter>
<linearGradient id="paint0_linear_10673_1947" x1="360" y1="13" x2="19.2521" y2="25.057" gradientUnits="userSpaceOnUse">
<stop offset="0.133662" stop-color="#FEE89E"/>
<stop offset="1" stop-color="#2DD3E3"/>
</linearGradient>
<linearGradient id="paint1_linear_10673_1947" x1="-0.886016" y1="136.329" x2="208.744" y2="-83.7809" gradientUnits="userSpaceOnUse">
<stop stop-color="#EEEEEE"/>
<stop offset="1" stop-color="#D8D8D8" stop-opacity="0"/>
</linearGradient>
<linearGradient id="paint2_linear_10673_1947" x1="7.23477" y1="136.329" x2="211.181" y2="-123.1" gradientUnits="userSpaceOnUse">
<stop stop-color="#EEEEEE"/>
<stop offset="1" stop-color="#D8D8D8" stop-opacity="0"/>
</linearGradient>
<linearGradient id="paint3_linear_10673_1947" x1="-7.66935" y1="176.442" x2="73.7262" y2="-82.116" gradientUnits="userSpaceOnUse">
<stop stop-color="#EEEEEE"/>
<stop offset="1" stop-color="#D8D8D8" stop-opacity="0"/>
</linearGradient>
</defs>
</svg>
